<svg xmlns="http://www.w3.org/2000/svg" version="1.1" xmlns:xlink="http://www.w3.org/1999/xlink" xmlns:svgjs="http://svgjs.dev/svgjs" width="1920" height="1080" preserveAspectRatio="none" viewBox="0 0 1920 1080"><g mask="url(&quot;#SvgjsMask1346&quot;)" fill="none"><g mask="url(&quot;#SvgjsMask1347&quot;)"><path d="M1903.5 540.5L1856.5 493.5M1950.5 540.5L1903.5 540.5L1856.5 540.5" stroke="rgba(255, 255, 255, 1)" stroke-width="7.83"></path><path d="M1844.75 540.5 a11.75 11.75 0 1 0 23.5 0 a11.75 11.75 0 1 0 -23.5 0zM1844.75 493.5 a11.75 11.75 0 1 0 23.5 0 a11.75 11.75 0 1 0 -23.5 0z" fill="rgba(255, 255, 255, 1)"></path><path d="M1950.5 587.5L1903.5 587.5L1856.5 587.5" stroke="rgba(212, 107, 71, 1)" stroke-width="7.83"></path><path d="M1844.75 587.5 a11.75 11.75 0 1 0 23.5 0 a11.75 11.75 0 1 0 -23.5 0z" fill="rgba(212, 107, 71, 1)"></path><path d="M1809.5 493.5L1762.5 540.5L1715.5 540.5L1668.5 540.5L1621.5 540.5L1574.5 540.5M1433.5 493.5L1386.5 540.5M1856.5 446.5L1809.5 446.5M1198.5 493.5L1151.5 540.5L1104.5 540.5M1950.5 446.5L1903.5 446.5L1856.5 446.5L1809.5 493.5L1762.5 493.5L1715.5 493.5L1668.5 493.5L1621.5 493.5L1574.5 493.5L1527.5 493.5L1480.5 493.5L1433.5 493.5L1386.5 493.5L1339.5 493.5L1292.5 493.5L1245.5 493.5L1198.5 493.5L1151.5 493.5" stroke="rgba(212, 107, 71, 1)" stroke-width="7.83"></path><path d="M1139.75 493.5 a11.75 11.75 0 1 0 23.5 0 a11.75 11.75 0 1 0 -23.5 0zM1562.75 540.5 a11.75 11.75 0 1 0 23.5 0 a11.75 11.75 0 1 0 -23.5 0zM1374.75 540.5 a11.75 11.75 0 1 0 23.5 0 a11.75 11.75 0 1 0 -23.5 0zM1797.75 446.5 a11.75 11.75 0 1 0 23.5 0 a11.75 11.75 0 1 0 -23.5 0zM1092.75 540.5 a11.75 11.75 0 1 0 23.5 0 a11.75 11.75 0 1 0 -23.5 0z" fill="rgba(212, 107, 71, 1)"></path><path d="M1151.5 634.5L1104.5 587.5L1057.5 540.5M1433.5 587.5L1386.5 634.5L1339.5 634.5M1668.5 634.5L1621.5 587.5L1574.5 587.5L1527.5 587.5L1480.5 587.5M1621.5 634.5L1574.5 681.5L1527.5 681.5M1950.5 634.5L1903.5 634.5L1856.5 634.5L1809.5 634.5L1762.5 634.5L1715.5 634.5L1668.5 634.5L1621.5 634.5L1574.5 634.5L1527.5 634.5L1480.5 634.5L1433.5 587.5L1386.5 587.5L1339.5 587.5L1292.5 634.5L1245.5 634.5L1198.5 634.5L1151.5 634.5L1104.5 634.5" stroke="rgba(212, 107, 71, 1)" stroke-width="7.83"></path><path d="M1092.75 634.5 a11.75 11.75 0 1 0 23.5 0 a11.75 11.75 0 1 0 -23.5 0zM1045.75 540.5 a11.75 11.75 0 1 0 23.5 0 a11.75 11.75 0 1 0 -23.5 0zM1327.75 634.5 a11.75 11.75 0 1 0 23.5 0 a11.75 11.75 0 1 0 -23.5 0zM1468.75 587.5 a11.75 11.75 0 1 0 23.5 0 a11.75 11.75 0 1 0 -23.5 0zM1515.75 681.5 a11.75 11.75 0 1 0 23.5 0 a11.75 11.75 0 1 0 -23.5 0z" fill="rgba(212, 107, 71, 1)"></path><path d="M1950.5 399.5L1903.5 399.5" stroke="rgba(255, 255, 255, 1)" stroke-width="7.83"></path><path d="M1891.75 399.5 a11.75 11.75 0 1 0 23.5 0 a11.75 11.75 0 1 0 -23.5 0z" fill="rgba(255, 255, 255, 1)"></path><path d="M1762.5 681.5L1715.5 728.5L1668.5 728.5M1809.5 681.5L1762.5 728.5L1715.5 775.5M1950.5 681.5L1903.5 681.5L1856.5 681.5L1809.5 681.5L1762.5 681.5L1715.5 681.5" stroke="rgba(255, 255, 255, 1)" stroke-width="7.83"></path><path d="M1703.75 681.5 a11.75 11.75 0 1 0 23.5 0 a11.75 11.75 0 1 0 -23.5 0zM1656.75 728.5 a11.75 11.75 0 1 0 23.5 0 a11.75 11.75 0 1 0 -23.5 0zM1703.75 775.5 a11.75 11.75 0 1 0 23.5 0 a11.75 11.75 0 1 0 -23.5 0z" fill="rgba(255, 255, 255, 1)"></path><path d="M1621.5 446.5L1574.5 399.5L1527.5 399.5L1480.5 399.5M1386.5 446.5L1339.5 399.5L1292.5 399.5L1245.5 399.5M1809.5 352.5L1762.5 352.5M1715.5 399.5L1668.5 446.5M1950.5 352.5L1903.5 352.5L1856.5 352.5L1809.5 352.5L1762.5 399.5L1715.5 399.5L1668.5 399.5L1621.5 446.5L1574.5 446.5L1527.5 446.5L1480.5 446.5L1433.5 446.5L1386.5 446.5L1339.5 446.5L1292.5 446.5L1245.5 446.5L1198.5 446.5" stroke="rgba(255, 255, 255, 1)" stroke-width="7.83"></path><path d="M1186.75 446.5 a11.75 11.75 0 1 0 23.5 0 a11.75 11.75 0 1 0 -23.5 0zM1468.75 399.5 a11.75 11.75 0 1 0 23.5 0 a11.75 11.75 0 1 0 -23.5 0zM1233.75 399.5 a11.75 11.75 0 1 0 23.5 0 a11.75 11.75 0 1 0 -23.5 0zM1750.75 352.5 a11.75 11.75 0 1 0 23.5 0 a11.75 11.75 0 1 0 -23.5 0zM1656.75 446.5 a11.75 11.75 0 1 0 23.5 0 a11.75 11.75 0 1 0 -23.5 0z" fill="rgba(255, 255, 255, 1)"></path><path d="M1903.5 728.5L1856.5 775.5L1809.5 775.5M1950.5 728.5L1903.5 728.5L1856.5 728.5" stroke="rgba(212, 107, 71, 1)" stroke-width="7.83"></path><path d="M1844.75 728.5 a11.75 11.75 0 1 0 23.5 0 a11.75 11.75 0 1 0 -23.5 0zM1797.75 775.5 a11.75 11.75 0 1 0 23.5 0 a11.75 11.75 0 1 0 -23.5 0z" fill="rgba(212, 107, 71, 1)"></path><path d="M1668.5 305.5L1621.5 258.5M1480.5 305.5L1433.5 258.5L1386.5 258.5M1809.5 305.5L1762.5 258.5M1950.5 305.5L1903.5 305.5L1856.5 305.5L1809.5 305.5L1762.5 305.5L1715.5 305.5L1668.5 305.5L1621.5 305.5L1574.5 305.5L1527.5 305.5L1480.5 305.5L1433.5 305.5" stroke="rgba(255, 255, 255, 1)" stroke-width="7.83"></path><path d="M1421.75 305.5 a11.75 11.75 0 1 0 23.5 0 a11.75 11.75 0 1 0 -23.5 0zM1609.75 258.5 a11.75 11.75 0 1 0 23.5 0 a11.75 11.75 0 1 0 -23.5 0zM1374.75 258.5 a11.75 11.75 0 1 0 23.5 0 a11.75 11.75 0 1 0 -23.5 0zM1750.75 258.5 a11.75 11.75 0 1 0 23.5 0 a11.75 11.75 0 1 0 -23.5 0z" fill="rgba(255, 255, 255, 1)"></path></g></g><defs><mask id="SvgjsMask1346"><rect width="1920" height="1080" fill="#ffffff"></rect></mask><mask id="SvgjsMask1347"><rect width="1920" height="1080" fill="white"></rect><path d="M1850.62 540.5 a5.88 5.88 0 1 0 11.76 0 a5.88 5.88 0 1 0 -11.76 0zM1850.62 493.5 a5.88 5.88 0 1 0 11.76 0 a5.88 5.88 0 1 0 -11.76 0z" fill="black"></path><path d="M1850.62 587.5 a5.88 5.88 0 1 0 11.76 0 a5.88 5.88 0 1 0 -11.76 0z" fill="black"></path><path d="M1145.62 493.5 a5.88 5.88 0 1 0 11.76 0 a5.88 5.88 0 1 0 -11.76 0zM1568.62 540.5 a5.88 5.88 0 1 0 11.76 0 a5.88 5.88 0 1 0 -11.76 0zM1380.62 540.5 a5.88 5.88 0 1 0 11.76 0 a5.88 5.88 0 1 0 -11.76 0zM1803.62 446.5 a5.88 5.88 0 1 0 11.76 0 a5.88 5.88 0 1 0 -11.76 0zM1098.62 540.5 a5.88 5.88 0 1 0 11.76 0 a5.88 5.88 0 1 0 -11.76 0z" fill="black"></path><path d="M1098.62 634.5 a5.88 5.88 0 1 0 11.76 0 a5.88 5.88 0 1 0 -11.76 0zM1051.62 540.5 a5.88 5.88 0 1 0 11.76 0 a5.88 5.88 0 1 0 -11.76 0zM1333.62 634.5 a5.88 5.88 0 1 0 11.76 0 a5.88 5.88 0 1 0 -11.76 0zM1474.62 587.5 a5.88 5.88 0 1 0 11.76 0 a5.88 5.88 0 1 0 -11.76 0zM1521.62 681.5 a5.88 5.88 0 1 0 11.76 0 a5.88 5.88 0 1 0 -11.76 0z" fill="black"></path><path d="M1897.62 399.5 a5.88 5.88 0 1 0 11.76 0 a5.88 5.88 0 1 0 -11.76 0z" fill="black"></path><path d="M1709.62 681.5 a5.88 5.88 0 1 0 11.76 0 a5.88 5.88 0 1 0 -11.76 0zM1662.62 728.5 a5.88 5.88 0 1 0 11.76 0 a5.88 5.88 0 1 0 -11.76 0zM1709.62 775.5 a5.88 5.88 0 1 0 11.76 0 a5.88 5.88 0 1 0 -11.76 0z" fill="black"></path><path d="M1192.62 446.5 a5.88 5.88 0 1 0 11.76 0 a5.88 5.88 0 1 0 -11.76 0zM1474.62 399.5 a5.88 5.88 0 1 0 11.76 0 a5.88 5.88 0 1 0 -11.76 0zM1239.62 399.5 a5.88 5.88 0 1 0 11.76 0 a5.88 5.88 0 1 0 -11.76 0zM1756.62 352.5 a5.88 5.88 0 1 0 11.76 0 a5.88 5.88 0 1 0 -11.76 0zM1662.62 446.5 a5.88 5.88 0 1 0 11.76 0 a5.88 5.88 0 1 0 -11.76 0z" fill="black"></path><path d="M1850.62 728.5 a5.88 5.88 0 1 0 11.76 0 a5.88 5.88 0 1 0 -11.76 0zM1803.62 775.5 a5.88 5.88 0 1 0 11.76 0 a5.88 5.88 0 1 0 -11.76 0z" fill="black"></path><path d="M1427.62 305.5 a5.88 5.88 0 1 0 11.76 0 a5.88 5.88 0 1 0 -11.76 0zM1615.62 258.5 a5.88 5.88 0 1 0 11.76 0 a5.88 5.88 0 1 0 -11.76 0zM1380.62 258.5 a5.88 5.88 0 1 0 11.76 0 a5.88 5.88 0 1 0 -11.76 0zM1756.62 258.5 a5.88 5.88 0 1 0 11.76 0 a5.88 5.88 0 1 0 -11.76 0z" fill="black"></path></mask></defs></svg>